<?xml version="1.0" encoding="utf-8"?>
<!-- Generator: Adobe Illustrator 18.1.1, SVG Export Plug-In . SVG Version: 6.00 Build 0)  -->
<svg version="1.1" id="Layer_1" xmlns="http://www.w3.org/2000/svg" xmlns:xlink="http://www.w3.org/1999/xlink" x="0px" y="0px"
	 width="25px" height="25px" viewBox="0 0 200 200" enable-background="new 0 0 200 200" xml:space="preserve">
<path fill="#FFFFFF" d="M46.8,145.4c0,7,5.7,12.7,12.7,12.7l8.6,0l0,26.4c0,6.6,5.3,11.9,11.9,11.9c6.6,0,11.9-5.3,11.9-11.9l0-26.4
	l16.1,0l0,26.4c0,6.6,5.3,11.9,11.9,11.9c6.6,0,11.9-5.3,11.9-11.9l0-26.4l8.7,0c7,0,12.7-5.7,12.7-12.7l0-74.2l-106.4,0L46.8,145.4
	z"/>
<path fill="#A0BE41" d="M26.3,66c-6.6,0-11.9,5.3-11.9,11.9l0,49.8c0,6.6,5.3,11.9,11.9,11.9c6.6,0,11.9-5.3,11.9-11.9l0-49.8
	C38.2,71.3,32.9,66,26.3,66 M126.3,19.2L134.6,4c0.4-0.8,0.2-1.8-0.7-2.2c-0.8-0.4-1.8-0.1-2.2,0.7l-8.4,15.3
	c-7.1-3.1-15-4.9-23.3-4.9c-8.3,0-16.2,1.7-23.3,4.9L68.3,2.5c-0.4-0.8-1.4-1.1-2.2-0.7C65.3,2.2,65,3.2,65.4,4l8.3,15.2
	c-16.3,8.4-27.4,24.5-27.4,42.9l107.2,0C153.6,43.6,142.6,27.6,126.3,19.2 M75.6,46.6c-3,0-5.5-2.4-5.5-5.5c0-3,2.4-5.5,5.5-5.5
	c3,0,5.5,2.5,5.5,5.5C81.1,44.1,78.6,46.6,75.6,46.6 M46.8,70.4l0,77.2c0,7,5.7,12.7,12.7,12.7l8.6,0l0,26.4
	c0,6.6,5.3,11.9,11.9,11.9c6.6,0,11.9-5.3,11.9-11.9l0-26.4l16.1,0l0,26.4c0,6.6,5.3,11.9,11.9,11.9c6.6,0,11.9-5.3,11.9-11.9
	l0-26.4l8.7,0c7,0,12.7-5.7,12.7-12.7l0-77.2L46.8,70.4z M185.6,77.8c0-6.6-5.3-11.9-11.9-11.9c-6.6,0-11.9,5.3-11.9,11.9l0,49.8
	c0,6.6,5.3,11.9,11.9,11.9c6.6,0,11.9-5.3,11.9-11.9L185.6,77.8z M124.6,46.6c-3,0-5.5-2.4-5.5-5.5c0-3,2.4-5.5,5.5-5.5
	c3,0,5.5,2.5,5.5,5.5C130.1,44.1,127.6,46.6,124.6,46.6"/>
<g id="Scala_Icon_4_">
	<g id="logo_4_">
		<path fill="#DC322D" d="M180.4,70.2v28.2c0,0,0,11.8-70.6,18.8V89C109.9,89,180.4,81.9,180.4,70.2"/>
		<path fill="#DC322D" d="M109.9,126.6c0,0,70.6-7.1,70.6-18.8V136c0,0,0,11.8-70.6,18.8V126.6z"/>
		<path fill="#DC322D" d="M109.9,192.5v-28.2c0,0,70.6-7.1,70.6-18.8v28.2C180.4,173.7,180.4,185.4,109.9,192.5"/>
	</g>
</g>
</svg>
